<?xml version="1.0" standalone="no"?>
<!DOCTYPE svg PUBLIC "-//W3C//DTD SVG 20010904//EN"
 "http://www.w3.org/TR/2001/REC-SVG-20010904/DTD/svg10.dtd">
<svg version="1.0" xmlns="http://www.w3.org/2000/svg"
 width="786.000000pt" height="786.000000pt" viewBox="0 0 786.000000 786.000000"
 preserveAspectRatio="xMidYMid meet">
<metadata>
Created by potrace 1.14, written by Peter Selinger 2001-2017
</metadata>
<g transform="translate(0.000000,786.000000) scale(0.100000,-0.100000)"
fill="#000000" stroke="none">
<path d="M3735 7509 c-1299 -101 -2389 -847 -2970 -2034 -205 -420 -339 -879
-400 -1368 -24 -197 -19 -197 49 3 190 558 365 922 636 1325 374 554 842 971
1411 1256 333 167 664 271 1049 331 127 19 184 22 455 22 331 0 423 -8 676
-59 1085 -221 1978 -949 2500 -2040 118 -246 222 -527 323 -870 l45 -150 0 63
c1 91 -26 335 -55 502 -152 868 -580 1645 -1204 2184 -692 599 -1614 904
-2515 835z"/>
<path d="M3895 5807 c-9 -14 -49 -180 -90 -369 -257 -1196 -285 -1335 -285
-1403 0 -39 29 -257 64 -485 35 -228 63 -416 61 -417 -1 -2 -37 -12 -81 -23
-503 -128 -907 -526 -1035 -1020 -12 -47 -26 -89 -30 -94 -17 -19 -462 150
-672 256 -209 104 -455 262 -637 406 -118 95 -333 309 -424 422 -153 192 -285
418 -378 648 l-39 97 6 -65 c9 -95 42 -240 82 -360 264 -794 1025 -1482 2013
-1820 69 -24 128 -46 132 -49 4 -4 16 -51 27 -106 80 -414 347 -764 726 -953
199 -99 360 -136 595 -136 241 0 397 37 610 144 134 68 230 138 345 254 192
193 315 424 366 690 11 55 23 103 27 107 4 3 75 29 157 58 982 346 1725 1023
1989 1814 38 115 72 263 81 362 l6 60 -50 -124 c-247 -604 -737 -1102 -1421
-1445 -226 -113 -653 -278 -678 -262 -5 3 -14 31 -21 63 -19 85 -77 237 -123
323 -200 371 -527 629 -922 730 -44 11 -80 21 -81 23 -2 1 26 189 61 417 35
228 64 447 64 485 0 51 -27 195 -100 540 -55 259 -135 630 -176 825 -42 195
-83 371 -92 390 -21 44 -54 51 -77 17z m240 -3343 c234 -63 425 -224 529 -445
50 -105 67 -178 73 -305 11 -230 -63 -427 -221 -592 -161 -169 -354 -252 -586
-252 -229 0 -423 82 -581 247 -163 168 -237 364 -226 597 6 127 23 200 73 305
117 250 345 420 619 465 57 9 260 -3 320 -20z"/>
</g>
</svg>
