<?xml version="1.0" encoding="UTF-8"?><svg id="Layer_1" xmlns="http://www.w3.org/2000/svg" viewBox="0 0 785.65 718.93"><defs><style>.cls-1{fill:#222224;}.cls-1,.cls-2,.cls-3{stroke-width:0px;}.cls-2{fill:#f0f0f0;}.cls-3{fill:#ee1515;}</style></defs><path class="cls-3" d="m432.83,335.63l-33.84-158.65c-1.46-5.49-3.74-8.72-6.16-8.72s-4.71,3.23-6.16,8.72l-33.84,158.65c-1.52,5.72-1.95,13.19-1.15,19.97l16.22,106.75h49.85s16.23-106.74,16.23-106.74c.8-6.79.37-14.25-1.15-19.98Z"/><circle id="Ellipse_22" class="cls-2" cx="392.82" cy="584.11" r="107.95"/><path class="cls-1" d="m596.46,529.94c-19.65,9.34-40.04,17.08-60.87,23.31-1.9-9.82-4.83-19.47-8.75-28.71-51.34-117.79-216.69-117.86-268.08-.02-3.92,9.22-6.84,18.85-8.75,28.65-17.61-5.27-34.91-11.62-51.71-19.12-27.34-12.2-53.56-27.58-77.03-46.23-24.97-19.89-47.17-43.85-63.79-71.17-9.83-16.32-17.64-33.45-23.48-51.84,6.36,87.96,73.3,160.68,148.1,201.56,24.36,13.44,50.16,24.22,76.72,32.52,7.38,67.41,64.66,120.04,134,120.04s126.66-52.66,134.01-120.11c33.52-10.47,65.82-24.94,95.55-43.65,66.35-41.56,123.55-110.12,129.27-190.35-23.58,76.03-84.83,131.74-155.19,165.13Zm-203.63,135.26c-44.71,0-81.08-36.37-81.08-81.08s36.37-81.08,81.08-81.08,81.08,36.37,81.08,81.08-36.37,81.08-81.08,81.08Z"/><path class="cls-3" d="m34,364.81c6.02-92.33,41.19-184.14,104.93-252.23C242.5-.56,415.16-32.94,552.38,36.14c125.45,61.72,196.38,191.79,199.17,329.17-8.52-32.87-18.65-64.68-32.3-95.51-8.88-19.73-19.41-39.91-31.11-58.11-2.32-3.78-6.51-9.81-9.05-13.6,0,0-2.29-3.37-2.29-3.37l-2.44-3.27c-58.96-81.3-146.91-134.09-247.32-143.1-131.17-12.12-253.87,55.03-324.87,164.55-4.16,5.97-9.33,14.67-13.1,20.91,0,0-1.06,1.77-1.06,1.77l-.99,1.81-2.01,3.61s-4.03,7.22-4.03,7.22c0,0-2.01,3.62-2.01,3.62-2.08,4.14-5.37,10.69-7.47,14.82-15.32,31.37-27.29,64.56-37.5,98.14h0Z"/></svg>